<?xml version="1.0" encoding="UTF-8" standalone="no"?>
<!-- Created with Inkscape (http://www.inkscape.org/) -->

<svg
   width="78.448563mm"
   height="101.83773mm"
   viewBox="0 0 78.448563 101.83773"
   version="1.1"
   id="svg1"
   xml:space="preserve"
   xmlns="http://www.w3.org/2000/svg"
   xmlns:svg="http://www.w3.org/2000/svg"><defs
     id="defs1" /><g
     id="layer1"
     transform="translate(-0.354724,-0.49606617)"><g
       id="g1"
       transform="translate(17.974063,-9.4149852)"
       style="fill:#ffffff;fill-opacity:1"><path
         style="fill:#ffffff;fill-opacity:1"
         d="m 29.808251,111.51578 c -8.03461,-0.84984 -14.08332,-4.95418 -16.92849,-11.48679 -1.57597,-3.618478 -2.04537,-6.828848 -2.05032,-14.022908 l -0.003,-4.49792 2.37828,-3.96875 2.37827,-3.96875 10e-4,7.48491 c 0.002,10.81117 0.52747,14.49129 2.68125,18.78336 2.06348,4.112098 5.38217,6.948048 9.88794,8.449618 1.92653,0.64202 2.47319,0.70428 6.085417,0.6931 3.55982,-0.011 4.19114,-0.0848 6.12706,-0.71593 4.06954,-1.32673 7.22576,-4.09794 9.07973,-7.97214 2.00743,-4.194898 1.95512,-3.640988 2.05792,-21.788638 0.0642,-11.33557 0.002,-16.665 -0.20576,-17.66646 -0.58396,-2.81292 -2.8326,-4.72966 -5.92281,-5.0486 -1.1725,-0.12101 -1.47885,-0.24833 -1.47885,-0.61462 0,-0.43003 0.58568,-0.46179 8.46667,-0.45913 7.85867,0.003 8.46667,0.0358 8.46667,0.46199 0,0.36061 -0.30503,0.49061 -1.42145,0.60584 -2.56234,0.26446 -4.01773,1.34591 -5.13354,3.81458 -0.40989,0.90685 -0.47062,2.68646 -0.60776,17.80858 l -0.15236,16.80104 -0.70094,2.61168 c -2.23115,8.313068 -7.4615,13.083798 -15.97745,14.573408 -2.50829,0.43875 -3.82177,0.46165 -7.027867,0.12253 z m -46.79223,-7.35412 -0.63536,-0.51493 0.54659,-0.75053 c 0.30063,-0.4128 12.9061302,-18.342018 28.01223,-39.842728 15.10609,-21.5007 27.540277,-39.08954 27.631527,-39.0863 0.0912,0.003 0.44676,0.22189 0.79003,0.4859 l 0.62414,0.48001 -27.964587,39.79692 c -4.1453868,5.89938 -28.006139,39.833588 -28.1669,39.871748 -0.115445,0.0274 -0.48822,-0.15687 -0.83767,-0.44009 z m 9.0219302,-36.726638 c -2.8448602,-0.47503 -7.5631802,-2.49581 -7.8376402,-3.35675 -0.36117,-1.13289 -1.57211,-12.62254 -1.36349,-12.93708 0.33942,-0.51177 0.91378,0.43344 1.12688,1.85448 0.45764,3.05174 3.05923,7.87484 5.48467,10.16804 0.6807002,0.64359 0.7172702,0.76915 0.41633,1.42965 -0.27532,0.60424 -0.26509,0.76424 0.0618,0.96671 0.2154302,0.13344 1.0465302,0.64827 1.8468902,1.14407 0.80037,0.49579 1.33615,0.88792 1.19063,0.87139 -0.14552,-0.0165 -0.56224,-0.0798 -0.92604,-0.14051 z m 17.44676,-16.13705 c -0.53958,-1.63493 -1.9854,-3.84133 -3.57898,-5.46169 -1.51459,-1.54003 -4.5343,-3.62094 -11.39455,-7.85208 -6.3201002,-3.898 -9.1930802,-7.41585 -9.9013802,-12.12388 -0.9068,-6.02739 1.93461,-11.38297 7.4321602,-14.00837 5.0016,-2.3885504 10.31578,-2.5686104 16.58064,-0.5618 1.37604,0.44079 2.7101398,1.00966 2.9646498,1.26418 0.37134,0.37133 0.54865,1.45162 0.89759,5.46877 0.24825,2.85798 0.33556,5.10531 0.20348,5.23739 -0.38819,0.38819 -0.77752,-0.0601 -0.95054,-1.09443 -0.53132,-3.17629 -2.2472498,-6.45645 -4.3904198,-8.39268 -3.92889,-3.54951 -11.85149,-3.57114 -15.38064,-0.042 -2.9450902,2.94509 -3.7581902,8.86554 -1.79402,13.06288 1.26097,2.69463 3.78334,5.00808 8.87671004,8.14148 9.86584996,6.06939 12.15428976,7.79357 13.97985976,10.53283 l 0.66784,1.00209 -1.73604,2.90051 c -0.95482,1.59529 -1.8303,2.90052 -1.94552,2.90052 -0.1152098,0 -0.3540898,-0.43818 -0.5308398,-0.97373 z"
         id="path1" /></g></g></svg>
